<svg width="24" height="24" viewBox="0 0 24 24" fill="none" xmlns="http://www.w3.org/2000/svg">
<path d="M13.4442 6.23815V11.4562L17.78 14.0574C17.9983 14.1886 18.1557 14.4011 18.2174 14.6483C18.2791 14.8955 18.24 15.157 18.1089 15.3754C17.9777 15.5938 17.7651 15.7511 17.518 15.8128C17.2708 15.8745 17.0092 15.8355 16.7908 15.7043L11.9893 12.8234C11.8472 12.738 11.7297 12.6173 11.648 12.473C11.5664 12.3287 11.5235 12.1657 11.5236 12V6.23815C11.5236 5.98347 11.6248 5.73921 11.8049 5.55912C11.985 5.37903 12.2292 5.27785 12.4839 5.27785C12.7386 5.27785 12.9828 5.37903 13.1629 5.55912C13.343 5.73921 13.4442 5.98347 13.4442 6.23815ZM12.4839 0.476354C10.969 0.47258 9.46844 0.769286 8.06899 1.3493C6.66954 1.92931 5.39902 2.78111 4.33095 3.85541C3.45828 4.73889 2.68284 5.58875 1.9206 6.47823V4.31755C1.9206 4.06287 1.81943 3.81861 1.63933 3.63852C1.45924 3.45843 1.21499 3.35725 0.9603 3.35725C0.705613 3.35725 0.461356 3.45843 0.281265 3.63852C0.101174 3.81861 0 4.06287 0 4.31755V9.11905C0 9.37374 0.101174 9.618 0.281265 9.79809C0.461356 9.97818 0.705613 10.0794 0.9603 10.0794H5.7618C6.01649 10.0794 6.26074 9.97818 6.44083 9.79809C6.62093 9.618 6.7221 9.37374 6.7221 9.11905C6.7221 8.86437 6.62093 8.62011 6.44083 8.44002C6.26074 8.25993 6.01649 8.15875 5.7618 8.15875H3.00094C3.85921 7.14804 4.71387 6.19614 5.68858 5.20943C7.02322 3.8748 8.72157 2.96306 10.5714 2.58815C12.4213 2.21323 14.3406 2.39176 16.0896 3.10144C17.8385 3.81111 19.3396 5.02045 20.4052 6.57835C21.4707 8.13625 22.0536 9.97363 22.0809 11.8609C22.1082 13.7482 21.5787 15.6016 20.5587 17.1897C19.5386 18.7778 18.0732 20.03 16.3454 20.79C14.6177 21.55 12.7044 21.7839 10.8445 21.4627C8.98454 21.1414 7.26053 20.2792 5.88784 18.9837C5.7961 18.897 5.68817 18.8293 5.57023 18.7843C5.4523 18.7393 5.32665 18.718 5.20047 18.7215C5.07429 18.7251 4.95005 18.7535 4.83484 18.8051C4.71964 18.8566 4.61571 18.9304 4.52901 19.0221C4.44232 19.1139 4.37454 19.2218 4.32954 19.3398C4.28455 19.4577 4.26323 19.5833 4.2668 19.7095C4.27037 19.8357 4.29875 19.9599 4.35033 20.0751C4.40191 20.1904 4.47568 20.2943 4.56743 20.381C5.93519 21.6717 7.59807 22.6081 9.41094 23.1083C11.2238 23.6086 13.1316 23.6576 14.9677 23.251C16.8039 22.8444 18.5126 21.9947 19.9448 20.7758C21.377 19.557 22.4892 18.0061 23.1842 16.2587C23.8792 14.5112 24.136 12.6201 23.9321 10.7506C23.7282 8.88104 23.0698 7.08981 22.0145 5.53321C20.9591 3.97662 19.5388 2.70197 17.8775 1.82051C16.2163 0.939056 14.3645 0.477578 12.4839 0.476354Z" fill="#04001A"/>
</svg>
